# xmcd
#
# Track frame offsets: 
#        182
#        13227
#        38952
#        72472
#        95987
#        110177
#        138272
#        170972
#        189432
#        205692
#
# Disc length: 3143 seconds
#
# Revision: 1
# Processed by: cddbd v1.4PL0 Copyright (c) Steve Scherf et al.
# Submitted via: ExactAudioCopy v0.90b4
#
DISCID=9c0c450a
DTITLE=Roy Buchanan - Charly Blues Legends "Live" - Vol 9
DYEAR=1995
DGENRE=Blues
TTITLE0=Short Fuse
TTITLE1=Green Onions
TTITLE2=Strange Kind Of Feeling
TTITLE3=Pressure
TTITLE4=Peter Gunn
TTITLE5=Chicago Smoke Shop
TTITLE6=Blues in E
TTITLE7=Hey Joe
TTITLE8=Foxy Lady
TTITLE9=Fantasia
EXTD=
EXTT0=
EXTT1=
EXTT2=
EXTT3=
EXTT4=
EXTT5=
EXTT6=
EXTT7=
EXTT8=
EXTT9=
PLAYORDER=
